<?xml version="1.0" encoding="utf-8"?>
<!-- Generator: Adobe Illustrator 28.2.0, SVG Export Plug-In . SVG Version: 6.00 Build 0)  -->
<svg version="1.1" id="Layer_1" xmlns="http://www.w3.org/2000/svg" xmlns:xlink="http://www.w3.org/1999/xlink" x="0px" y="0px"
	 viewBox="0 0 600 300" style="enable-background:new 0 0 600 300;" xml:space="preserve">
<style type="text/css">
	.st0{fill:#12B3BA;stroke:#12B3BA;stroke-miterlimit:10;}
	.st1{fill:#0C77B6;stroke:#0C77B6;stroke-miterlimit:10;}
	.st2{clip-path:url(#SVGID_00000130640046065624579820000005209954321221536907_);}
	.st3{clip-path:url(#SVGID_00000139263967692914577360000001476049328625011359_);fill:#0C77B6;}
	.st4{clip-path:url(#SVGID_00000004507963193072517350000015590345785894202543_);fill:#12B3BA;}
	.st5{clip-path:url(#SVGID_00000031902705343123083900000005574181263632244384_);fill:#12B3BA;}
	.st6{fill:#0C77B6;}
	.st7{fill:#12B3BA;}
</style>
<g>
	<g>
		<path class="st0" d="M104.39,70.64c-8.2-0.16-15.37-7.22-15.33-15.07c0.04-8.08,7.8-15.35,15.98-14.95
			c8.33,0.4,15.28,7.5,15.03,15.33C119.8,63.91,112.45,70.8,104.39,70.64z M104.35,68.49c7.95,0.08,13.61-5.22,13.64-12.77
			c0.03-7.41-5.34-12.81-12.9-12.96c-8.02-0.16-13.77,5.01-13.91,12.49C91.04,62.93,96.51,68.41,104.35,68.49z"/>
		<path class="st0" d="M236.74,133.61c-0.18,7.95-7.48,14.87-15.58,14.8c-8.4-0.09-15.77-7.52-15.37-15.5
			c0.41-8.02,7.82-14.83,15.81-14.53C229.88,118.7,236.93,125.78,236.74,133.61z M221.49,146.26c7.84-0.08,13.31-5.56,13.17-13.24
			c-0.13-7.3-5.67-12.48-13.37-12.49c-7.93-0.01-13.47,5.35-13.44,12.96C207.88,141.05,213.53,146.34,221.49,146.26z"/>
		<path class="st0" d="M42.33,173.35c0,7.86-7.19,14.9-15.38,15.03c-8.3,0.13-15.85-7.25-15.63-15.27
			c0.22-7.95,7.53-14.86,15.62-14.74C35.14,158.47,42.33,165.48,42.33,173.35z M26.9,186.23c7.86-0.03,13.39-5.47,13.32-13.09
			c-0.08-7.33-5.57-12.58-13.22-12.64c-7.96-0.05-13.57,5.24-13.59,12.82C13.39,180.92,18.98,186.26,26.9,186.23z"/>
		<path class="st0" d="M143.46,233.97c8.12-0.01,15.39,6.95,15.51,14.86c0.13,8.05-7.51,15.39-15.75,15.17
			c-8.22-0.23-15.35-7.29-15.25-15.13C128.06,240.95,135.31,233.98,143.46,233.97z M143.58,261.85c7.86-0.03,13.38-5.49,13.29-13.11
			c-0.09-7.33-5.58-12.56-13.24-12.62c-7.95-0.04-13.56,5.25-13.56,12.84C130.06,256.55,135.66,261.88,143.58,261.85z"/>
		<path class="st0" d="M43.21,196.9c20.06,15.05,38.89,13.74,56.62-4.01C86.38,212.09,61.21,214.58,43.21,196.9z"/>
		<path class="st0" d="M84.45,125.98c-19.68-15.04-21.31-39.3-4.23-56.69C65.11,89.5,66.64,108.33,84.45,125.98z"/>
		<path class="st0" d="M169.93,166.57c17.45,14.96,18.39,41.4-1.67,57.53C185.71,205.4,186.49,186.23,169.93,166.57z"/>
		<path class="st0" d="M209.32,108.23c-18.71-16.55-37.5-17.09-56.85,0.15c2.68-6.43,15.12-13.35,23.86-14.1
			C189.58,93.16,203.71,98.89,209.32,108.23z"/>
		<g>
			<path class="st1" d="M162.14,83.87c-5.75-5.85-5.94-15.9-0.42-21.5c5.68-5.75,16.31-5.52,21.87,0.48
				c5.67,6.11,5.68,16.04,0.02,21.45C177.85,89.82,167.78,89.62,162.14,83.87z M163.61,82.29c5.63,5.62,13.37,5.78,18.68,0.41
				c5.21-5.27,5.14-12.9-0.15-18.29c-5.62-5.71-13.35-6.05-18.68-0.8C157.99,69.02,158.05,76.76,163.61,82.29z"/>
			<path class="st1" d="M212.74,221.42c-5.69,5.55-15.75,5.41-21.49-0.31c-5.95-5.94-6.03-16.4-0.15-21.83
				c5.9-5.44,15.97-5.13,21.46,0.67C218.26,205.97,218.34,215.95,212.74,221.42z M192.98,219.8c5.66,5.43,13.41,5.33,18.68-0.26
				c5.01-5.31,4.67-12.89-0.83-18.28c-5.66-5.55-13.37-5.6-18.68-0.13C186.9,206.56,187.25,214.29,192.98,219.8z"/>
			<path class="st1" d="M50.09,111.9c-5.63,4.99-15.43,4.07-20.96-1.97c-5.6-6.11-5.33-16.45,0.55-21.39
				c5.83-4.89,15.63-3.8,20.91,2.32C55.97,97.08,55.73,106.91,50.09,111.9z M30.65,108.54c5.24,5.87,12.8,6.55,18.2,1.65
				c5.2-4.72,5.3-12.15,0.26-17.91c-5.24-5.98-12.75-6.83-18.18-2.03C25.49,95.06,25.37,102.63,30.65,108.54z"/>
			<path class="st1" d="M81.28,225.8c5.82,5.67,6.15,15.73,0.7,21.47c-5.53,5.83-16.13,5.76-21.86-0.17
				c-5.73-5.91-5.88-15.94-0.32-21.49C65.39,220.02,75.45,220.11,81.28,225.8z M61.88,245.83c5.65,5.48,13.41,5.43,18.68-0.09
				c5.07-5.3,4.8-12.89-0.66-18.28c-5.65-5.6-13.36-5.73-18.68-0.3C55.92,232.57,56.19,240.3,61.88,245.83z"/>
			<path class="st1" d="M30.12,131.37c3.82,24.79,18.2,37.01,43.28,36.73C50.35,172.4,30.63,156.59,30.12,131.37z"/>
			<path class="st1" d="M109.19,109.49c-3.56-24.51,12.24-43,36.61-43.49C120.87,69.88,108.79,84.42,109.19,109.49z"/>
			<path class="st1" d="M141.92,198.28c2.01,22.89-15.8,42.46-41.43,39.96C126.05,237.08,140.02,223.92,141.92,198.28z"/>
			<path class="st1" d="M210.87,184.1c-1.8-24.91-14.87-38.44-40.76-39.64c6.41-2.72,20.16,1.03,26.92,6.6
				C207.3,159.53,213.39,173.51,210.87,184.1z"/>
		</g>
	</g>
	<g>
		<g>
			<g>
				<defs>
					<path id="SVGID_1_" d="M121.03,93.64L121.03,93.64c32.22,0,58.33,26.12,58.33,58.33v0c0,32.22-26.12,58.33-58.33,58.33h0
						c-32.22,0-58.33-26.12-58.33-58.33v0C62.7,119.76,88.82,93.64,121.03,93.64z"/>
				</defs>
				<clipPath id="SVGID_00000091713999141245628100000004050571257192840354_">
					<use xlink:href="#SVGID_1_"  style="overflow:visible;"/>
				</clipPath>
				<g style="clip-path:url(#SVGID_00000091713999141245628100000004050571257192840354_);">
					<g>
						<defs>
							<rect id="SVGID_00000062879573493032543590000017844759840387961274_" x="62.7" y="93.64" width="116.66" height="116.66"/>
						</defs>
						<clipPath id="SVGID_00000027589241777844699250000002261630419315782826_">
							<use xlink:href="#SVGID_00000062879573493032543590000017844759840387961274_"  style="overflow:visible;"/>
						</clipPath>
						<path style="clip-path:url(#SVGID_00000027589241777844699250000002261630419315782826_);fill:#0C77B6;" d="M141.25,179.66
							c-0.41,2.24-2.07,2.98-4.01,3.31c-0.92,0.15-1.88,0.18-2.82,0.2c-2.06,0.02-4.13,0-6.19-0.01c-0.23,0-0.46-0.02-0.72-0.04
							v-1.59c0.63-0.05,1.27-0.07,1.91-0.16c2.23-0.36,4.07-1.31,5.12-3.45c0.28-0.59,0.3-1.06,0.01-1.68
							c-4.47-9.3-8.9-18.62-13.34-27.93c-0.09-0.17-0.17-0.35-0.3-0.61c-0.11,0.21-0.2,0.34-0.26,0.47
							c-1.53,3.31-3.06,6.61-4.6,9.91c-0.17,0.37-0.13,0.55,0.21,0.78c2.16,1.45,4.5,2.32,7.12,2.31c0.38,0,0.57,0.11,0.72,0.48
							c0.43,1.12,0.91,2.22,1.42,3.46c-1.15,0.03-2.22,0.14-3.27,0.09c-3.6-0.2-6.99-1.17-10.28-2.62
							c-2.88-1.28-5.52-2.92-7.72-5.19c-3.21-3.32-4.95-7.28-5.35-11.88c-0.12-1.42-0.41-2.83-0.76-4.21
							c-0.49-1.95-1.71-3.36-3.52-4.25c-0.74-0.37-1.5-0.68-2.29-1.04c0.28-0.72,0.77-1.25,1.4-1.65c1.12-0.72,2.37-0.85,3.66-0.77
							c2.38,0.14,4.39,1.01,5.76,3.07c0.15,0.23,0.28,0.47,0.43,0.73c0.46-0.51,0.86-1.01,1.32-1.46c1.25-1.22,2.7-2.02,4.5-2.05
							c1.69-0.03,2.79,0.96,3.79,2.11c-0.04,0.07-0.04,0.08-0.07,0.09c-3.06,1.42-4.18,3.98-4.14,7.17
							c0.05,3.78,0.92,7.37,2.81,10.68c0.26,0.47,0.57,0.9,0.87,1.35c0.03,0.05,0.1,0.08,0.2,0.16c3.3-7.26,6.58-14.49,9.91-21.83
							c4.53,8.7,9.02,17.32,13.54,26.01c0.22-0.14,0.41-0.25,0.57-0.39c0.9-0.75,1.49-1.71,1.89-2.8c0.62-1.67,0.85-3.41,0.73-5.18
							c-0.16-2.31-1.36-4.02-3.25-5.28c-1.17-0.77-2.45-1.27-3.8-1.59c-0.21-0.04-0.4-0.1-0.69-0.17c0.2-0.35,0.34-0.67,0.54-0.95
							c1.46-2.05,3.54-2.82,5.97-2.76c1.9,0.04,3.46,0.92,4.87,2.11c0.2,0.16,0.39,0.35,0.59,0.52c0.05-0.03,0.12-0.05,0.13-0.09
							c1.14-2.05,4.74-3.53,7.86-2.59c1.53,0.47,2.54,1.67,2.63,3.11c0.02,0.34-0.07,0.47-0.41,0.49c-0.42,0.03-0.85,0.09-1.25,0.18
							c-2.03,0.51-3.4,2.18-3.53,4.28c-0.02,0.26-0.01,0.52-0.01,0.78c0,4.52,0,9.04,0,13.56v0.65c-1,0-1.95,0.01-2.91-0.01
							c-0.12,0-0.27-0.17-0.36-0.3c-0.69-1-1.38-2.01-2.06-3.01c-0.11-0.16-0.2-0.33-0.34-0.57c-1.41,1.73-3.09,3.04-5.08,3.98
							c0.1,0.21,0.17,0.37,0.25,0.52c1.46,2.81,2.92,5.63,4.39,8.43c1.37,2.58,3.14,4.82,5.45,6.61c1.75,1.34,3.7,2.3,6.04,2.37
							c0,0.49,0.02,0.95-0.01,1.41c-0.01,0.09-0.21,0.23-0.33,0.24c-0.42,0.02-0.85-0.02-1.27-0.02c-1.46,0-2.93,0.01-4.39,0
							C145.56,183.09,143.1,182.08,141.25,179.66"/>
					</g>
					<g>
						<defs>
							<rect id="SVGID_00000023244066294006334540000016699331414180766092_" x="62.7" y="93.64" width="116.66" height="116.66"/>
						</defs>
						<clipPath id="SVGID_00000051354956682559142680000016647787679484761236_">
							<use xlink:href="#SVGID_00000023244066294006334540000016699331414180766092_"  style="overflow:visible;"/>
						</clipPath>
						<path style="clip-path:url(#SVGID_00000051354956682559142680000016647787679484761236_);fill:#12B3BA;" d="M143.89,123.07
							c1.38-1.06,2.73-2.11,4.15-3.21v13.75c-0.96,0-1.89,0-2.83,0c-0.45,0-1.02,0.14-1.32-0.08c-0.3-0.22-0.36-0.79-0.52-1.21
							c-1.64-4.32-4.08-8.08-7.81-10.9c-3.53-2.66-7.54-3.69-11.93-3.4c-2.37,0.16-4.66,0.62-6.81,1.63
							c-4.34,2.04-6.86,5.55-7.98,10.12c-0.23,0.91-0.45,1.47-1.52,1.61c-1.17,0.15-2.14,0.89-3.05,1.63
							c-0.12,0.1-0.25,0.21-0.31,0.26c-0.66-0.48-1.26-0.98-1.92-1.36c-0.65-0.38-1.37-0.64-2.1-0.96c0.01-0.05,0-0.14,0.02-0.21
							c1.58-4.54,3.87-8.62,7.41-11.93c3.56-3.33,7.81-5.12,12.66-5.5c3.74-0.29,7.44-0.15,11.08,0.79
							c4.57,1.19,8.51,3.41,11.5,7.16C143.07,121.83,143.45,122.43,143.89,123.07"/>
					</g>
					<g>
						<defs>
							<rect id="SVGID_00000054952110000607756710000005185365668821898126_" x="62.7" y="93.64" width="116.66" height="116.66"/>
						</defs>
						<clipPath id="SVGID_00000064317467978240497980000003820498153011358649_">
							<use xlink:href="#SVGID_00000054952110000607756710000005185365668821898126_"  style="overflow:visible;"/>
						</clipPath>
						<path style="clip-path:url(#SVGID_00000064317467978240497980000003820498153011358649_);fill:#12B3BA;" d="M104.92,179.68
							c-0.86,1.94-2.52,2.51-4.25,2.92c-1.86,0.44-3.75,0.5-5.65,0.48c-0.38,0-0.51-0.15-0.51-0.53c-0.01-1.11-0.02-1.11,1.07-1.32
							c1.43-0.26,2.81-0.66,4.09-1.33c1.35-0.7,2.4-1.69,3.06-3.08c1.45-3.08,2.92-6.14,4.37-9.21c0.51-1.07,1-2.14,1.5-3.21
							c1.18,0.58,2.34,1.16,3.54,1.76c-0.05,0.13-0.12,0.29-0.19,0.44c-1.42,3.06-2.84,6.1-4.22,9.17
							c-0.15,0.32-0.21,0.76-0.14,1.11c0.51,2.82,2.41,4.41,5.26,4.48c0.13,0,0.25,0.02,0.42,0.03c-0.03,0.49-0.05,0.95-0.13,1.42
							c-0.01,0.1-0.23,0.23-0.35,0.23c-1.77,0.08-3.53,0.04-5.24-0.52C106.22,182.1,105.17,181.35,104.92,179.68"/>
					</g>
				</g>
			</g>
		</g>
	</g>
	<g>
	</g>
	<g>
	</g>
	<g>
	</g>
	<g>
	</g>
	<g>
	</g>
	<g>
	</g>
	<g>
	</g>
	<g>
	</g>
	<g>
	</g>
	<g>
	</g>
	<g>
	</g>
	<g>
	</g>
	<g>
	</g>
	<g>
	</g>
	<g>
	</g>
</g>
<g>
	<path class="st6" d="M280.92,182.59c-0.55,0-1.09-0.07-1.64-0.2c-2.28-0.71-4.25-2.37-5.91-4.98c-1.66-2.61-2.9-5.86-3.72-9.76
		c-1.98,1.2-4.07,1.79-6.25,1.79c-4.3,0-7.79-2.22-10.47-6.67c-2.68-4.45-4.01-10.3-4.01-17.56c0-7.26,1.37-13.09,4.1-17.49
		c2.73-4.4,6.33-6.6,10.8-6.6c2.57,0,5.08,0.51,7.52,1.53c1.09,0.44,1.98,0.93,2.66,1.46l-0.34,12.74h-0.31
		c-0.55-4.16-1.62-7.27-3.23-9.33c-1.61-2.06-3.55-3.09-5.82-3.09c-2.28,0-4.16,1.95-5.64,5.84c-1.48,3.89-2.22,9.03-2.22,15.4
		c0,4.03,0.32,7.59,0.96,10.69c0.64,3.1,1.55,5.5,2.73,7.2c1.18,1.7,2.5,2.56,3.95,2.56c1.45,0,2.58-0.65,3.42-1.96
		c0.83-1.3,1.25-3.02,1.25-5.14V150c0.02-0.97-0.12-1.73-0.43-2.26c-0.31-0.53-0.75-0.8-1.32-0.8h-0.51v-0.66h11.48v0.66h-0.55
		c-0.55,0-0.97,0.27-1.26,0.8c-0.3,0.53-0.43,1.28-0.41,2.26v10.75c0,2.57,0.26,5.11,0.79,7.63c1.18,5.58,3.07,9.16,5.67,10.75
		c0.75,0.44,1.5,0.66,2.25,0.66c0.75,0,1.49-0.16,2.22-0.46l0.07,0.66C284.68,181.73,282.75,182.59,280.92,182.59z"/>
	<path class="st7" d="M298.11,127.3c0-0.6,0.14-1.06,0.89-1.06s0.89,0.6,0.89,1.06v27.55c0,7.5-3.59,14.27-9.26,14.27
		c-5.84,0-9.19-6.77-9.19-14.27V127.3c0-0.53,0.24-1.06,0.96-1.06c0.79,0,0.99,0.46,0.99,1.06v27.41c0,5.97,2.39,11.02,7.24,11.02
		c4.75,0,7.48-5.04,7.48-11.02V127.3z"/>
	<path class="st7" d="M307.98,167.46c0,0.53-0.21,1.13-0.99,1.13c-0.72,0-0.96-0.6-0.96-1.13v-40.09c0-0.73,0.24-1.13,0.58-1.13
		h3.96c6.35,0,10.73,3.45,10.73,13.74c0,11.08-5.5,16.2-11.07,16.2c-0.79,0-0.99-0.8-0.99-1.66c0-1.06,0.21-1.73,0.96-1.73
		c4.51,0,9.16-3.32,9.16-12.94c0-7.97-3.59-10.16-8.78-10.16h-2.6V167.46z"/>
	<path class="st7" d="M332.92,129.62v37.77c0,0.6-0.24,1.13-0.99,1.13c-0.75,0-0.96-0.53-0.96-1.13v-37.77h-6.59
		c0,0-0.58-0.27-0.58-1.73c0-1.39,0.58-1.66,0.58-1.66h15.1c0,0,0.58,0.27,0.58,1.66c0,1.46-0.58,1.73-0.58,1.73H332.92z"/>
	<path class="st7" d="M344.13,158.9l-1.88,7.96c-0.27,1.19-0.51,1.66-1.2,1.66c-0.48,0-0.82-0.6-0.82-1.33c0-0.53,0.1-0.86,0.1-0.86
		l9.46-39.36c0.17-0.66,0.38-1.46,0.89-1.46c0.51,0,0.68,0.8,0.85,1.53l9.6,39.29c0,0,0.1,0.33,0.1,0.86c0,0.53-0.24,1.33-0.82,1.33
		c-0.51,0-0.82-0.46-1.02-1.26l-2.02-8.36H344.13z M344.98,155.38h11.55l-5.81-24.03L344.98,155.38z"/>
	<path class="st7" d="M403.26,179.87c-1.75,1.99-3.54,2.99-5.36,2.99s-3.55-0.66-5.18-1.99s-3.22-3.64-4.78-6.94
		c-1.56-3.3-2.84-7.31-3.84-12.05l-0.92-4.38h-7.31l-1.37,6.17c-0.11,0.58-0.17,1.04-0.17,1.39c0,0.35,0.04,0.74,0.12,1.16
		c0.08,0.42,0.25,0.8,0.51,1.13c0.26,0.33,0.54,0.5,0.84,0.5h0.31v0.66h-7.62v-0.66h0.31c0.52,0,1.04-0.3,1.55-0.9
		c0.51-0.6,0.94-1.49,1.28-2.69l6.97-29.74c-0.68-3.67-1.25-6.14-1.69-7.4c-0.44-1.26-0.81-2.22-1.11-2.89
		c-0.55-1.24-1.23-2.15-2.05-2.72c-0.32-0.22-0.7-0.33-1.13-0.33c-0.43,0-0.92,0.2-1.47,0.6l-0.07-0.66
		c1.82-2.08,3.56-3.12,5.23-3.12c2.46,0,4.68,2.35,6.66,7.04c1,2.43,1.9,5.38,2.7,8.83l5.47,24.36c1,4.47,1.74,7.47,2.22,8.99
		c0.48,1.53,0.91,2.83,1.28,3.92c0.38,1.08,0.75,2.02,1.11,2.82c0.36,0.8,0.76,1.57,1.2,2.32c0.75,1.33,1.7,2.32,2.83,2.99
		c0.48,0.31,1.01,0.46,1.59,0.46s1.19-0.18,1.83-0.53L403.26,179.87z M376.62,154.18h5.88l-2.15-10.29c-0.18-0.8-0.4-1.92-0.65-3.39
		L376.62,154.18z"/>
	<path class="st6" d="M404.08,165.8c3.9,0,6.49-3.45,6.49-8.56c0-11.28-13.6-6.7-13.6-20.18c0-6.84,3.07-11.55,7.65-11.55
		c3.79,0,6.39,3.72,6.39,8.1c0,2.65-1.13,4.45-1.74,4.45c-0.51,0-0.68-0.46-0.68-0.93c0-0.8,0.51-1.06,0.51-3.32
		c0-2.85-1.71-5.04-4.48-5.04c-2.9,0-5.74,2.46-5.74,7.63c0,11.08,13.6,6.44,13.6,20.31c0,6.77-2.94,12.48-8.34,12.48
		c-4.75,0-7.93-3.19-7.93-9.16c0-3.78,1.26-5.44,1.81-5.44c0.34,0,0.65,0.46,0.65,1.13c0,0.8-0.62,1.86-0.62,3.65
		C398.07,163.41,400.36,165.8,404.08,165.8z"/>
	<path class="st6" d="M425.13,165.8c3.9,0,6.49-3.45,6.49-8.56c0-11.28-13.6-6.7-13.6-20.18c0-6.84,3.07-11.55,7.65-11.55
		c3.79,0,6.39,3.72,6.39,8.1c0,2.65-1.13,4.45-1.74,4.45c-0.51,0-0.68-0.46-0.68-0.93c0-0.8,0.51-1.06,0.51-3.32
		c0-2.85-1.71-5.04-4.48-5.04c-2.9,0-5.74,2.46-5.74,7.63c0,11.08,13.6,6.44,13.6,20.31c0,6.77-2.94,12.48-8.34,12.48
		c-4.75,0-7.93-3.19-7.93-9.16c0-3.78,1.26-5.44,1.81-5.44c0.34,0,0.65,0.46,0.65,1.13c0,0.8-0.62,1.86-0.62,3.65
		C419.11,163.41,421.4,165.8,425.13,165.8z"/>
	<path class="st6" d="M438.48,147.48c0-13.01,5.23-21.97,10.83-21.97c5.6,0,10.8,8.96,10.8,21.97c0,12.88-4.92,21.64-10.8,21.64
		C443.4,169.12,438.48,160.36,438.48,147.48z M458.2,147.48c0-11.22-4.07-18.52-8.88-18.52s-8.88,7.3-8.88,18.52
		c0,11.02,4.1,18.19,8.88,18.19C454.06,165.67,458.2,158.5,458.2,147.48z"/>
	<path class="st6" d="M475.79,128.96c-4.48,0-8.61,4.91-8.61,18.92c0,12.41,4.2,17.85,8.85,17.85c3.45,0,5.6-3.05,6.73-5.51
		c0.21-0.4,0.38-0.6,0.68-0.6c0.38,0,0.68,0.46,0.68,1.46c0,0.86-0.21,1.33-0.38,1.73c-1.37,3.05-4.27,6.37-7.72,6.37
		c-5.84,0-10.8-7.24-10.8-21.44c0-15.4,5.09-22.24,10.56-22.24c4.48,0,7.38,5.04,7.38,11.02c0,2.85-0.68,4.51-1.44,4.51
		c-0.34,0-0.89-0.2-0.89-1.33c0-0.6,0.34-1.39,0.34-2.79C481.19,132.21,479.14,128.96,475.79,128.96z"/>
	<path class="st6" d="M491.61,167.39c0,0.53-0.21,1.13-0.99,1.13c-0.72,0-0.96-0.6-0.96-1.13V127.3c0-0.6,0.24-1.06,0.96-1.06
		c0.79,0,0.99,0.4,0.99,1.06V167.39z"/>
	<path class="st6" d="M499.94,158.9l-1.88,7.96c-0.27,1.19-0.51,1.66-1.2,1.66c-0.48,0-0.82-0.6-0.82-1.33c0-0.53,0.1-0.86,0.1-0.86
		l9.46-39.36c0.17-0.66,0.38-1.46,0.89-1.46c0.51,0,0.68,0.8,0.85,1.53l9.6,39.29c0,0,0.1,0.33,0.1,0.86c0,0.53-0.24,1.33-0.82,1.33
		c-0.51,0-0.82-0.46-1.02-1.26l-2.02-8.36H499.94z M500.8,155.38h11.55l-5.81-24.03L500.8,155.38z"/>
	<path class="st6" d="M526.35,129.62v37.77c0,0.6-0.24,1.13-0.99,1.13c-0.75,0-0.96-0.53-0.96-1.13v-37.77h-6.59
		c0,0-0.58-0.27-0.58-1.73c0-1.39,0.58-1.66,0.58-1.66h15.1c0,0,0.58,0.27,0.58,1.66c0,1.46-0.58,1.73-0.58,1.73H526.35z"/>
	<path class="st6" d="M551.67,165.07c0,0,0.58,0.33,0.58,1.73c0,1.46-0.58,1.73-0.58,1.73h-13.5c-0.34,0-0.58-0.46-0.58-1.13v-40.02
		c0-0.73,0.24-1.13,0.58-1.13h12.68c0,0,0.58,0.27,0.58,1.66c0,1.46-0.58,1.79-0.58,1.79h-11.31v20.38h9.53c0,0,0.58,0.33,0.58,1.79
		c0,1.46-0.58,1.73-0.58,1.73h-9.53v11.48H551.67z"/>
	<path class="st6" d="M564.2,165.8c3.9,0,6.49-3.45,6.49-8.56c0-11.28-13.6-6.7-13.6-20.18c0-6.84,3.07-11.55,7.65-11.55
		c3.79,0,6.39,3.72,6.39,8.1c0,2.65-1.13,4.45-1.74,4.45c-0.51,0-0.68-0.46-0.68-0.93c0-0.8,0.51-1.06,0.51-3.32
		c0-2.85-1.71-5.04-4.48-5.04c-2.9,0-5.74,2.46-5.74,7.63c0,11.08,13.6,6.44,13.6,20.31c0,6.77-2.94,12.48-8.34,12.48
		c-4.75,0-7.93-3.19-7.93-9.16c0-3.78,1.26-5.44,1.81-5.44c0.34,0,0.65,0.46,0.65,1.13c0,0.8-0.62,1.86-0.62,3.65
		C558.19,163.41,560.48,165.8,564.2,165.8z"/>
</g>
<g>
</g>
<g>
</g>
<g>
</g>
<g>
</g>
<g>
</g>
<g>
</g>
<g>
</g>
<g>
</g>
<g>
</g>
<g>
</g>
<g>
</g>
<g>
</g>
<g>
</g>
<g>
</g>
<g>
</g>
</svg>
