<svg xmlns="http://www.w3.org/2000/svg" width="28" height="28" viewBox="0 0 28 28">
  <g id="Group_73549" data-name="Group 73549" transform="translate(0 0)">
    <g id="Group_73548" data-name="Group 73548" transform="translate(0 0)">
      <path id="Path_112499" data-name="Path 112499" d="M149.411,302.839a1.363,1.363,0,0,0-1.6-.835l-4.989,1.31a2.592,2.592,0,0,1-.382,1.348,1.537,1.537,0,0,1-1.421,1.015h-.058a14.351,14.351,0,0,1-7.189-1.932.56.56,0,0,1-.2-.748.526.526,0,0,1,.726-.2A13.026,13.026,0,0,0,140,304.547a1.556,1.556,0,0,0,1.67-1.3,1.072,1.072,0,0,0-.053-.551.241.241,0,0,0-.127-.115,43.438,43.438,0,0,1-9.024-4.879c-1.341-1.2-4.189-.1-5.557.426l-.2.076a4.445,4.445,0,0,1-2.2-.016.52.52,0,0,0-.419.071.563.563,0,0,0-.233.366l-.848,5.1a.568.568,0,0,0,.117.448.538.538,0,0,0,.414.191c1.05-.016,4.029.087,5.106.748.106.066.244.153.4.257a16.174,16.174,0,0,0,8.759,3.029,12.2,12.2,0,0,0,5.074-1.119l5.811-2.625a1.414,1.414,0,0,0,.716-1.817Z" transform="translate(-123.005 -280.401)" fill="#3c3c3c"/>
      <g id="noun-protection-3654553" transform="translate(9.589)">
        <path id="Path_112500" data-name="Path 112500" d="M175,74.852v1.8a11.82,11.82,0,0,0,6.9,10.752,11.82,11.82,0,0,0,6.9-10.752v-1.8L181.9,71.4ZM185.357,77.1a.98.98,0,0,1,0,1.381L181.633,82.2a.921.921,0,0,1-1.3,0l-1.883-1.883a.976.976,0,1,1,1.381-1.381l1.151,1.151,2.992-2.992h0a.976.976,0,0,1,1.381,0Z" transform="translate(-172.698 -69.043)" fill="#d9232d"/>
        <path id="Path_112501" data-name="Path 112501" d="M134.533,15.563l-8.663-3.9-8.663,3.9a.92.92,0,0,0-.543.838v2.2a15.618,15.618,0,0,0,9.206,14.237A15.612,15.612,0,0,0,135.076,18.6V16.4a.92.92,0,0,0-.543-.838Zm-.838,3.714a12.76,12.76,0,0,1-7.641,11.682c-.994.382-8.009-3.866-8.009-11.682,0-2.2-.083-2.329.253-2.5,8-4,7.494-3.834,7.779-3.682,7.931,3.963,7.618,3.687,7.618,4.092Z" transform="translate(-116.664 -11.664)" fill="#d9232d"/>
      </g>
    </g>
  </g>
</svg>
