<?xml version="1.0" encoding="utf-8"?>
<!-- Generator: Adobe Illustrator 28.2.0, SVG Export Plug-In . SVG Version: 6.00 Build 0)  -->
<svg version="1.1" id="Layer_1" xmlns="http://www.w3.org/2000/svg" xmlns:xlink="http://www.w3.org/1999/xlink" x="0px" y="0px"
	 viewBox="0 0 300 300" style="enable-background:new 0 0 300 300;" xml:space="preserve">
<style type="text/css">
	.st0{fill-rule:evenodd;clip-rule:evenodd;fill:#25D366;}
</style>
<g>
	<path class="st0" d="M218.27,179.89c-3.71-1.86-21.93-10.82-25.33-12.06c-3.4-1.24-5.87-1.85-8.34,1.86
		c-2.47,3.71-9.58,12.06-11.74,14.54c-2.16,2.47-4.33,2.78-8.03,0.93c-3.71-1.86-15.65-5.77-29.81-18.4
		c-11.02-9.83-18.46-21.97-20.62-25.68c-2.16-3.71-0.23-5.72,1.62-7.57c1.67-1.66,3.71-4.33,5.56-6.5c1.85-2.16,2.47-3.71,3.71-6.18
		c1.24-2.48,0.62-4.64-0.31-6.49c-0.93-1.86-8.34-20.11-11.43-27.53c-3.01-7.23-6.07-6.25-8.34-6.36c-2.16-0.11-4.63-0.13-7.11-0.13
		c-2.47,0-6.49,0.93-9.89,4.64c-3.4,3.71-12.98,12.68-12.98,30.93c0,18.25,13.28,35.88,15.14,38.35
		c1.85,2.48,26.14,39.92,63.33,55.98c8.84,3.82,15.75,6.1,21.13,7.81c8.88,2.82,16.96,2.42,23.35,1.47
		c7.12-1.06,21.93-8.97,25.02-17.63c3.09-8.66,3.09-16.08,2.16-17.63C224.45,182.68,221.98,181.75,218.27,179.89 M150.57,272.44
		L150.57,272.44c-22.13-0.01-43.83-5.95-62.77-17.19l-4.5-2.67l-46.68,12.24l12.46-45.51l-2.93-4.67
		c-12.35-19.63-18.87-42.33-18.86-65.63c0.03-68,55.35-123.32,123.38-123.32c32.94,0.01,63.9,12.86,87.19,36.17
		c23.28,23.31,36.1,54.29,36.09,87.25c-0.03,68-55.35,123.33-123.32,123.33 M255.58,43.8C227.57,15.75,190.31,0.3,150.62,0.28
		C68.84,0.28,2.28,66.84,2.24,148.65c-0.01,26.15,6.82,51.68,19.81,74.18L1,299.72l78.66-20.63c21.67,11.82,46.07,18.05,70.91,18.06
		h0.06c81.77,0,148.34-66.56,148.38-148.37C299.01,109.12,283.6,71.84,255.58,43.8"/>
</g>
<g>
</g>
<g>
</g>
<g>
</g>
<g>
</g>
<g>
</g>
<g>
</g>
<g>
</g>
<g>
</g>
<g>
</g>
<g>
</g>
<g>
</g>
<g>
</g>
<g>
</g>
<g>
</g>
<g>
</g>
</svg>
